HIERARCHY
ROOT hip
{
	OFFSET	0.00  0.00  0.00 
	CHANNELS 6 Xposition Yposition Zposition Xrotation Zrotation Yrotation
	JOINT abdomen
	{
		OFFSET	0.000000 1.799998 0.000000
		CHANNELS 3 Xrotation Zrotation Yrotation
		JOINT chest
		{
			OFFSET	0.000000 4.464001 -0.360000
			CHANNELS 3 Xrotation Zrotation Yrotation
			JOINT neck
			{
				OFFSET	0.000000 5.400002 -0.144000
				CHANNELS 3 Xrotation Zrotation Yrotation
				JOINT head
				{
					OFFSET	0.000000 1.655998 0.000000
					CHANNELS 3 Xrotation Zrotation Yrotation
				}
			}
			JOINT lCollar
			{
				OFFSET	1.872000 3.528000 -0.432000
				CHANNELS 3 Yrotation Zrotation Xrotation
				JOINT lShldr
				{
					OFFSET	1.656000 0.000000 0.000000
					CHANNELS 3 Zrotation Yrotation Xrotation
					JOINT lForeArm
					{
						OFFSET	5.400000 0.000000 0.000000
						CHANNELS 3 Yrotation Zrotation Xrotation
						JOINT lHand
						{
							OFFSET	4.392000 0.000000 0.000000
							CHANNELS 3 Zrotation Yrotation Xrotation
						}
					}
				}
			}
			JOINT rCollar
			{
				OFFSET	-1.872000 3.528000 -0.432000
				CHANNELS 3 Yrotation Zrotation Xrotation
				JOINT rShldr
				{
					OFFSET	-1.656000 0.000000 0.000000
					CHANNELS 3 Zrotation Yrotation Xrotation
					JOINT rForeArm
					{
						OFFSET	-5.400000 0.000000 0.000000
						CHANNELS 3 Yrotation Zrotation Xrotation
						JOINT rHand
						{
							OFFSET	-4.392000 0.000000 0.000000
							CHANNELS 3 Zrotation Yrotation Xrotation
						}
					}
				}
			}
		}
	}
	JOINT lThigh
	{
		OFFSET	2.808000 -0.864002 0.720000
		CHANNELS 3 Xrotation Zrotation Yrotation
		JOINT lShin
		{
			OFFSET	-1.080000 -10.583999 0.000000
			CHANNELS 3 Xrotation Zrotation Yrotation
			JOINT lFoot
			{
				OFFSET	0.000000 -10.152000 -0.648000
				CHANNELS 3 Xrotation Yrotation Zrotation
				End Site
				{
					OFFSET 0.000000 -1.296000 2.448000
				}
			}
		}
	}
	JOINT rThigh
	{
		OFFSET	-2.808000 -0.864002 0.720000
		CHANNELS 3 Xrotation Zrotation Yrotation
		JOINT rShin
		{
			OFFSET	1.080000 -10.583999 0.000000
			CHANNELS 3 Xrotation Zrotation Yrotation
			JOINT rFoot
			{
				OFFSET	0.000000 -10.152000 -0.648000
				CHANNELS 3 Xrotation Yrotation Zrotation
				End Site
				{
					OFFSET 0.000000 -1.296000 2.448000
				}
			}
		}
	}
}
MOTION
Frames:     13
Frame Time: 0.033333
0.000000 23.151886 0.000000 0.000000 0.000000 0.000000 0.000000 0.000000 0.000000 0.000000 0.000000 0.000000 0.000000 0.000000 0.000000 0.000000 0.000000 0.000000 0.000000 0.000000 0.000000 0.000000 0.000000 0.000000 0.000000 0.000000 0.000000 0.000000 0.000000 0.000000 9.990230 0.000000 0.000000 0.000000 0.000000 0.000000 0.000000 0.000000 0.000000 0.000000 0.000000 0.000000 0.000000 0.000000 0.000000 0.009766 0.000000 0.000000 -0.273437 0.000000 0.000000 0.000000 -0.058594 0.000000 0.020493 0.032569 -0.011854 0.497961 0.003586 0.012903 
2.558801 6.835032 -4.695833 25.827101 0.849000 -0.090600 4.135090 -0.251647 10.091800 10.462100 1.549940 -11.588200 -32.699001 -2.992750 0.191014 -14.390200 0.000000 0.000000 10.000000 -30.000000 3.000000 -50.967300 -33.584900 30.000000 -80.283798 0.000000 20.000000 -15.145900 0.410731 30.000000 -10.000000 30.000000 3.000000 50.967300 33.584900 30.000000 80.283798 -0.000000 20.000000 15.145900 -0.410731 30.000000 -132.475998 22.883499 -4.309720 111.447998 -2.681550 -0.211971 -10.100100 1.332490 0.016367 -132.475998 -22.883499 4.309720 111.447998 2.681550 0.211971 -10.100100 -1.332490 -0.016367 
2.559931 8.482705 -4.683524 24.232655 0.849000 -0.090600 1.921266 -0.252600 10.082185 9.465209 1.570918 -11.138266 -26.061375 -2.776861 0.191014 -14.857015 0.000000 0.000000 0.034957 -30.000000 -0.238784 -50.967690 -26.074345 30.000000 -67.392273 0.000000 20.000000 -9.665116 1.158110 22.526218 -0.034957 30.000000 -0.238784 50.967690 26.074345 30.000000 67.392273 0.000000 20.000000 9.665116 -1.158110 22.526218 -120.958832 21.666096 -6.041380 104.167023 -2.931891 -0.214143 -4.065209 2.271780 0.030543 -120.984169 -21.663511 6.153776 104.189285 2.931880 0.213979 -4.039091 -2.241946 -0.029021 
2.561347 10.434195 -4.668032 22.160313 0.849000 -0.090600 -0.957053 -0.254445 10.068501 8.243361 1.604576 -10.578210 -17.758318 -2.507269 0.191015 -15.394002 0.000000 0.000000 -12.411558 -30.000000 -4.284122 -50.967838 -16.843847 30.000000 -51.128849 0.000000 20.000000 -2.819520 2.091601 13.191332 12.411558 30.000000 -4.284122 50.967838 16.843847 30.000000 51.128849 0.000000 20.000000 2.819520 -2.091601 13.191332 -106.531555 19.890545 -8.390911 94.760750 -3.244576 -0.216760 3.381647 3.548732 0.048112 -106.611977 -19.882341 8.747660 94.831406 3.244540 0.216238 3.464546 -3.454041 -0.043279 
2.562887 12.496666 -4.651165 19.867188 0.849000 -0.090600 -4.142544 -0.256817 10.052711 6.931563 1.645304 -9.971962 -8.747196 -2.214951 0.191015 -15.950204 0.000000 0.000000 -23.648010 -30.000000 -7.936026 -50.969158 -7.979141 30.000000 -37.018364 0.000000 20.000000 3.360538 2.934336 4.763995 23.648010 30.000000 -7.936026 50.969158 7.979141 30.000000 37.018364 0.000000 20.000000 -3.360538 -2.934336 4.763995 -90.862434 17.820541 -11.044610 84.383392 -3.583659 -0.219544 11.405684 4.992310 0.067086 -91.015869 -17.804892 11.725280 84.518211 3.583592 0.218549 11.563853 -4.811641 -0.057865 
2.564458 14.645054 -4.633976 17.546993 0.849000 -0.090600 -7.365403 -0.259069 10.037024 5.586190 1.684945 -9.352496 0.449685 -1.916485 0.191016 -16.530060 0.000000 0.000000 -30.000000 -30.000000 -10.000000 -50.973598 -1.289600 30.000000 -30.846800 -0.000000 20.000000 6.854140 3.410730 0.000000 30.000000 30.000000 -10.000000 50.973598 1.289600 30.000000 30.846800 0.000000 20.000000 -6.854140 -3.410730 0.000000 -74.875587 15.773457 -13.705412 73.869576 -3.929855 -0.222411 19.621668 6.439174 0.086494 -75.097466 -15.750825 14.689749 74.064545 3.929758 0.220971 19.850401 -6.177902 -0.073158 
2.565967 16.854294 -4.617514 15.393443 0.848999 -0.090600 -10.355823 -0.260552 10.023652 4.263615 1.715347 -8.752789 9.310027 -1.628453 0.191016 -17.138008 0.000000 0.000000 -30.000000 -30.000000 -10.000000 -50.973598 2.289980 30.000000 -34.726799 -0.000000 20.000000 6.854140 3.410720 0.000000 30.000000 30.000000 -10.000000 50.973598 -2.289980 30.000000 34.726799 0.000000 20.000000 -6.854140 -3.410720 0.000000 -59.495121 14.066659 -16.076254 64.053909 -4.263874 -0.225278 27.644371 7.725984 0.105364 -59.758373 -14.039806 17.244181 64.285255 4.263760 0.223570 27.915766 -7.415982 -0.089542 
2.567323 19.099316 -4.602830 13.600255 0.849000 -0.090600 -12.843999 -0.260618 10.014803 3.020211 1.728353 -8.205816 17.311525 -1.367435 0.191017 -17.778492 0.000000 0.000000 -29.366617 -30.000000 -9.797926 -50.942741 4.779089 30.000000 -38.912388 0.000000 20.000000 6.505777 3.363212 0.475037 29.366617 30.000000 -9.797926 50.942741 -4.779089 30.000000 38.912388 0.000000 20.000000 -6.505777 -3.363212 0.475037 -45.645157 13.017523 -17.860077 55.771038 -4.566431 -0.228061 35.088566 8.689400 0.122726 -45.900215 -12.991504 18.991692 55.995193 4.566320 0.226407 35.351521 -8.389036 -0.107395 
2.568433 21.355055 -4.590976 12.361137 0.849000 -0.090600 -14.560127 -0.258619 10.012684 1.912350 1.715809 -7.744552 23.931883 -1.150011 0.191017 -18.455944 0.000000 0.000000 -29.460247 -30.000000 -9.830844 -50.922474 6.895754 30.000000 -41.323509 0.000000 20.000000 6.557268 3.370235 0.404818 29.460247 30.000000 -9.830844 50.922474 -6.895754 30.000000 41.323509 0.000000 20.000000 -6.557268 -3.370235 0.404818 -34.249786 12.943415 -18.759811 49.855568 -4.818235 -0.230679 41.569023 9.166082 0.137607 -34.424595 -12.925581 19.535395 50.009193 4.818160 0.229545 41.749245 -8.960220 -0.127100 
2.569205 23.596449 -4.583002 11.869800 0.849000 -0.090600 -15.234400 -0.253906 10.019500 0.996402 1.669560 -7.401970 28.648800 -0.992761 0.191018 -19.174801 0.000000 0.000000 -30.000000 -30.000000 -10.000000 -50.973598 8.813990 30.000000 -42.714901 0.000000 20.000000 6.854130 3.410720 0.000000 30.000000 30.000000 -10.000000 50.973598 -8.813990 30.000000 42.714901 -0.000000 20.000000 -6.854130 -3.410720 0.000000 -26.233101 14.161700 -18.478399 47.142101 -5.000000 -0.233046 46.700500 8.992690 0.149038 -26.233101 -14.161700 18.478399 47.142101 5.000000 0.233046 46.700500 -8.992690 -0.149038 
2.569577 25.798431 -4.579600 12.251863 0.849000 -0.090600 -14.691920 -0.246138 10.036570 0.310418 1.584329 -7.200069 31.116215 -0.906691 0.191019 -19.936300 0.000000 0.000000 -30.000000 -29.763002 -10.000000 -51.145630 10.678267 29.925625 -43.717648 0.000000 20.000000 7.266640 3.466976 -0.562520 30.000000 29.763002 -10.000000 51.145630 -10.678267 29.925625 43.717648 0.000000 20.000000 -7.266640 -3.466976 -0.562520 -22.202215 16.876375 -16.822269 48.172054 -5.000000 -0.235104 50.223930 8.064398 0.156367 -21.919689 -16.905146 15.567136 47.923443 5.000000 0.236939 49.932980 -8.396664 -0.173370 
2.569612 27.935932 -4.580045 13.360604 0.849000 -0.090600 -13.137428 -0.236197 10.061644 -0.180831 1.466355 -7.116958 31.693020 -0.880517 0.191020 -20.728878 0.000000 0.000000 -30.000000 -29.353369 -10.000000 -51.442905 12.514878 29.797071 -44.468109 0.000000 20.000000 7.764109 3.534816 -1.240891 30.000000 29.353369 -10.000000 51.442905 -12.514878 29.797071 44.468109 0.000000 20.000000 -7.764109 -3.534816 -1.240891 -21.496399 20.837936 -14.011838 52.314121 -5.000000 -0.236891 52.384846 6.510442 0.160223 -20.847773 -20.903688 11.121332 51.741585 5.000000 0.241117 51.718811 -7.270617 -0.199382 
2.569404 29.983891 -4.583248 14.981214 0.849000 -0.090600 -10.870574 -0.225270 10.091582 -0.530893 1.324755 -7.119768 30.914347 -0.897378 0.191020 -21.537766 0.000000 0.000000 -30.000000 -28.780676 -10.000000 -51.858486 14.320574 29.617346 -44.978977 0.000000 20.000000 8.340608 3.613432 -2.027029 30.000000 28.780676 -10.000000 51.858486 -14.320574 29.617346 44.978977 0.000000 20.000000 -8.340608 -3.613432 -2.027029 -23.137955 25.683510 -10.371021 58.643814 -5.000000 -0.238467 53.554939 4.518574 0.161559 -22.073120 -25.790728 5.604036 57.699593 5.000000 0.245437 52.466248 -5.760088 -0.226139 
